<?xml version="1.0" encoding="utf-8"?>
<!-- Generator: Adobe Illustrator 19.2.0, SVG Export Plug-In . SVG Version: 6.00 Build 0)  -->
<svg version="1.1" id="Lager_1" xmlns="http://www.w3.org/2000/svg" xmlns:xlink="http://www.w3.org/1999/xlink" x="0px" y="0px"
	 viewBox="0 0 177.9 275.8" style="enable-background:new 0 0 177.9 275.8;" xml:space="preserve">
<style type="text/css">
	.st0{fill:#FFFFFF;}
</style>
<title>Customer_1</title>
<g id="Lager_2">
	<g id="Lager_1-2">
		<path class="st0" d="M141,123.5c-30.1,25.3-74,25.3-104.1,0C13.7,144,0,176.8,0,211.8c-0.1,20.5,4.8,40.8,14.3,59
			c9.9,1.3,19.9,2.4,29.9,3.2c14.8,1.2,29.9,1.8,44.8,1.8s30-0.6,44.8-1.8c9.9-0.8,20-1.9,29.9-3.2c9.5-18.2,14.4-38.5,14.3-59
			C177.9,176.8,164.2,144,141,123.5z"/>
		<path class="st0" d="M88.9,123.2c34,0,61.6-27.6,61.6-61.6S122.9,0,88.9,0S27.3,27.6,27.3,61.6C27.3,95.6,54.9,123.1,88.9,123.2z"
			/>
	</g>
</g>
</svg>
