<svg xmlns="http://www.w3.org/2000/svg" viewBox="0 0 177.9 275.78"><defs><style>.cls-1{fill:#a7c74d;}</style></defs><title>Customer_1</title><g id="Lager_2" data-name="Lager 2"><g id="Lager_1-2" data-name="Lager 1"><path class="cls-1" d="M141,123.49a80.85,80.85,0,0,1-104.08,0C13.74,144,0,176.79,0,211.77a126.38,126.38,0,0,0,14.26,59c9.9,1.33,19.94,2.4,29.89,3.19C59,275.19,74.05,275.78,89,275.78s30-.6,44.81-1.78c9.94-.79,20-1.86,29.89-3.19a126.34,126.34,0,0,0,14.26-59C177.9,176.78,164.16,144,141,123.49Z"/><path class="cls-1" d="M88.87,123.18A61.59,61.59,0,1,0,27.28,61.59,61.66,61.66,0,0,0,88.87,123.18Z"/></g></g></svg>