<?xml version="1.0" encoding="utf-8"?>
<!-- Generator: Adobe Illustrator 19.2.0, SVG Export Plug-In . SVG Version: 6.00 Build 0)  -->
<svg version="1.1" xmlns="http://www.w3.org/2000/svg" xmlns:xlink="http://www.w3.org/1999/xlink" x="0px" y="0px"
	 viewBox="0 0 189 241.7" style="enable-background:new 0 0 189 241.7;" xml:space="preserve">
<style type="text/css">
	.st0{display:none;}
	.st1{display:inline;fill:#9B9B9B;}
	.st2{fill:#FFFFFF;}
</style>
<g id="Lager_2_1_" class="st0">
	<rect x="0" class="st1" width="189" height="241.7"/>
</g>
<g id="Lager_1">
	<title>Database</title>
	<g id="Lager_2">
		<g id="Lager_1-2">
			<path class="st2" d="M180.3,161.1c-15,11.6-47.8,19.7-85.8,19.7s-70.8-8.1-85.8-19.7c-5.6,4.3-8.7,9.1-8.7,14.2
				c0,18.7,42.3,33.9,94.5,33.9S189,194,189,175.3C189,170.2,185.9,165.4,180.3,161.1z"/>
			<ellipse class="st2" cx="94.5" cy="33.9" rx="94.5" ry="33.9"/>
			<path class="st2" d="M179.9,122.3c-15.2,11.5-47.7,19.4-85.4,19.4s-70.2-7.9-85.4-19.4c-5.8,4.4-9.1,9.3-9.1,14.5
				c0,18.7,42.3,33.9,94.5,33.9s94.5-15.2,94.5-33.9C189,131.6,185.7,126.7,179.9,122.3z"/>
			<path class="st2" d="M6.3,145.3L0,136.8v-27c0,0,2,8.3,12.4,14.8c10.5,6.4,61,26.6,61,26.6s31.6,2.6,34.1,2.6s35.6-7.8,36.1-7.9
				s33.3-18.2,33.3-18.2v-2.8c0,0,11.7-5.4,12.1-15.1v27l-44.6,21l-94.7-2.7L6.3,145.3z"/>
			<path class="st2" d="M180.3,90.1c-15,11.6-47.8,19.7-85.8,19.7s-70.8-8-85.8-19.7C3.1,94.4,0,99.2,0,104.3
				c0,18.7,42.3,33.9,94.5,33.9S189,123,189,104.3C189,99.2,185.9,94.4,180.3,90.1z"/>
			<path class="st2" d="M179.9,193.3c-15.2,11.4-47.7,19.4-85.4,19.4s-70.3-7.9-85.4-19.4c-5.8,4.4-9.1,9.3-9.1,14.5
				c0,18.7,42.3,33.9,94.5,33.9s94.5-15.2,94.5-33.9C189,202.7,185.7,197.7,179.9,193.3z"/>
			<path class="st2" d="M6.3,216L0,207.5v-27c0,0,2,8.4,12.4,14.8s61,26.6,61,26.6s31.6,2.6,34.1,2.6s35.6-7.8,36.1-7.9
				s33.3-18.2,33.3-18.2v-2.8c0,0,11.7-5.4,12.1-15.1v27l-44.6,21l-94.7-2.7L6.3,216z"/>
			<path class="st2" d="M180.5,52.4l-0.6-0.5c-15.2,11.4-47.7,19.4-85.4,19.4c-28.4,0-54-4.5-71.3-11.6c-3.7-1.6-7.3-3.4-10.8-5.4
				l-0.1-0.1l-0.5-0.3l-1-0.7C1.8,46.9,0,39.4,0,39.4v27c0,18.7,42.3,33.9,94.5,33.9S189,85.1,189,66.4v-27
				C188.8,45.5,184,50,180.5,52.4z"/>
		</g>
	</g>
</g>
</svg>
