<?xml version="1.0" encoding="utf-8"?>
<!-- Generator: Adobe Illustrator 19.2.0, SVG Export Plug-In . SVG Version: 6.00 Build 0)  -->
<svg version="1.1" id="Lager_1" xmlns="http://www.w3.org/2000/svg" xmlns:xlink="http://www.w3.org/1999/xlink" x="0px" y="0px"
	 viewBox="0 0 340.7 303.2" style="enable-background:new 0 0 340.7 303.2;" xml:space="preserve">
<style type="text/css">
	.st0{fill:#FFFFFF;}
</style>
<title>Integration</title>
<g id="Lager_2">
	<g id="Lager_1-2">
		<path class="st0" d="M292.8,159.8c-26.4,0-47.8,21.4-47.8,47.8c0,26.4,21.4,47.8,47.8,47.8c26.4,0,47.8-21.4,47.8-47.8
			C340.6,181.2,319.2,159.8,292.8,159.8z"/>
		<path class="st0" d="M169.3,207.6c-26.4,0-47.8,21.4-47.8,47.8s21.4,47.8,47.8,47.8s47.8-21.4,47.8-47.8l0,0
			C217.1,229,195.7,207.6,169.3,207.6z"/>
		<path class="st0" d="M47.8,159.8C21.4,159.8,0,181.2,0,207.6s21.4,47.8,47.8,47.8s47.8-21.4,47.8-47.8
			C95.6,181.2,74.2,159.8,47.8,159.8z"/>
		<path class="st0" d="M258.5,161.1l-18.8-18.8c29.6-39.1,21.9-94.7-17.2-124.3S127.7-3.9,98.1,35.2C74,67,74.2,111.1,98.5,142.8
			l-18.3,18.3c7.7,5.9,13.9,13.5,18.2,22.3l21-21c10.6,7.2,22.6,11.9,35.2,14v26c9.4-2.3,19.2-2.3,28.6,0v-26
			c12.8-2.1,25.1-7,35.8-14.4l21.4,21.4C244.5,174.6,250.8,167,258.5,161.1z"/>
	</g>
</g>
</svg>
