<svg xmlns="http://www.w3.org/2000/svg" viewBox="0 0 340.66 303.24"><defs><style>.cls-1{fill:#a9c742;}</style></defs><title>Integration</title><g id="Lager_2" data-name="Lager 2"><g id="Lager_1-2" data-name="Lager 1"><path class="cls-1" d="M292.84,159.8a47.81,47.81,0,1,0,47.82,47.81A47.87,47.87,0,0,0,292.84,159.8Z"/><path class="cls-1" d="M169.32,207.61a47.81,47.81,0,1,0,47.81,47.81A47.87,47.87,0,0,0,169.32,207.61Z"/><path class="cls-1" d="M47.82,159.8a47.81,47.81,0,1,0,47.81,47.81A47.87,47.87,0,0,0,47.82,159.8Z"/><path class="cls-1" d="M258.48,161.1l-18.82-18.82a88.74,88.74,0,1,0-141.15.49L80.18,161.1a61.8,61.8,0,0,1,18.16,22.29l21-21a88.22,88.22,0,0,0,35.23,14v26a61,61,0,0,1,28.6,0v-26A88.25,88.25,0,0,0,218.95,162l21.37,21.37A61.8,61.8,0,0,1,258.48,161.1Z"/></g></g></svg>