<svg xmlns="http://www.w3.org/2000/svg" viewBox="0 0 164.34 260.27"><defs><style>.cls-1{fill:#a9c742;}</style></defs><title>Smartphone</title><g id="Lager_2" data-name="Lager 2"><g id="Lager_1-2" data-name="Lager 1"><path class="cls-1" d="M19.23,254.26C11.9,254.25,6,247.41,6,239.09H6V21.17C6,12.85,11.9,6,19.23,6H145.1c7.33,0,13.21,6.84,13.23,15.17h0V239.09c0,8.33-5.88,15.16-13.22,15.17h0v-.8c6.8,0,12.43-6.41,12.43-14.37h0V21.17c0-8-5.62-14.35-12.43-14.37H19.23c-6.79,0-12.42,6.41-12.42,14.37h0V239.09c0,8,5.63,14.35,12.42,14.37H145.1v.8Z"/><path class="cls-1" d="M145.1,0H19.24C8.61,0,0,9.48,0,21.17V239.09c0,11.69,8.61,21.18,19.24,21.18H145.1c10.62,0,19.24-9.49,19.24-21.18V21.17C164.34,9.48,155.72,0,145.1,0Zm-13,245.31h-8.55a8.55,8.55,0,1,1,0-17.1h8.55a8.55,8.55,0,0,1,0,17.1Zm14.73-45.91c0,5.82-4.33,10.59-9.62,10.59H27.12c-5.29,0-9.62-4.76-9.62-10.59V30c0-5.82,4.33-10.59,9.62-10.59h110.1c5.28,0,9.62,4.77,9.62,10.59Z"/></g></g></svg>