<?xml version="1.0" encoding="utf-8"?>
<!-- Generator: Adobe Illustrator 19.2.0, SVG Export Plug-In . SVG Version: 6.00 Build 0)  -->
<svg version="1.1" id="Lager_1" xmlns="http://www.w3.org/2000/svg" xmlns:xlink="http://www.w3.org/1999/xlink" x="0px" y="0px"
	 viewBox="0 0 280.4 286.9" style="enable-background:new 0 0 280.4 286.9;" xml:space="preserve">
<style type="text/css">
	.st0{fill:#FFFFFF;}
</style>
<title>Customer_1</title>
<g id="Lager_2">
	<g id="Lager_1-2">
		<path class="st0" d="M141,123.5c-30.1,25.3-74,25.3-104.1,0C13.7,144,0,176.8,0,211.8c-0.1,20.5,4.8,40.8,14.3,59
			c9.9,1.3,19.9,2.4,29.9,3.2c14.8,1.2,29.9,1.8,44.8,1.8s30-0.6,44.8-1.8c9.9-0.8,20-1.9,29.9-3.2c9.5-18.2,14.4-38.5,14.3-59
			C177.9,176.8,164.2,144,141,123.5z"/>
		<path class="st0" d="M88.9,123.2c34,0,61.6-27.6,61.6-61.6S122.9,0,88.9,0S27.3,27.6,27.3,61.6C27.3,95.6,54.9,123.1,88.9,123.2z"
			/>
	</g>
</g>
<g id="Lager_2_1_">
	<g id="Lager_1-2_1_">
		<path class="st0" d="M192.6,277.6c-4.4,0-8-4.1-8-9.2l0,0V136.7c0-5,3.6-9.2,8-9.2h76.1c4.4,0,8,4.1,8,9.2l0,0v131.8
			c0,5-3.6,9.2-8,9.2l0,0v-0.5c4.1,0,7.5-3.9,7.5-8.7l0,0V136.7c0-4.8-3.4-8.7-7.5-8.7h-76.1c-4.1,0-7.5,3.9-7.5,8.7l0,0v131.8
			c0,4.8,3.4,8.7,7.5,8.7h76.1v0.5H192.6z"/>
		<path class="st0" d="M268.7,123.9h-76.1c-6.4,0-11.6,5.7-11.6,12.8v131.8c0,7.1,5.2,12.8,11.6,12.8h76.1c6.4,0,11.6-5.7,11.6-12.8
			V136.7C280.4,129.6,275.2,123.9,268.7,123.9z M260.9,272.2h-5.2c-2.9,0-5.2-2.3-5.2-5.2s2.3-5.2,5.2-5.2h5.2
			c2.9,0,5.2,2.3,5.2,5.2S263.7,272.2,260.9,272.2z M269.8,244.5c0,3.5-2.6,6.4-5.8,6.4h-66.6c-3.2,0-5.8-2.9-5.8-6.4V142
			c0-3.5,2.6-6.4,5.8-6.4H264c3.2,0,5.8,2.9,5.8,6.4L269.8,244.5z"/>
	</g>
</g>
</svg>
